<?xml version="1.0" encoding="utf-8"?>
<!-- Generator: Adobe Illustrator 27.0.0, SVG Export Plug-In . SVG Version: 6.00 Build 0)  -->
<svg version="1.1" id="Layer_1" xmlns="http://www.w3.org/2000/svg" xmlns:xlink="http://www.w3.org/1999/xlink" x="0px" y="0px"
	 viewBox="0 0 805 600" style="enable-background:new 0 0 805 600;" xml:space="preserve">
<style type="text/css">
	.st0{clip-path:url(#SVGID_00000167362098840604391970000016321462919845279145_);}
	.st1{fill:none;stroke:#D3D3D3;}
	.st2{fill:none;stroke:#000000;}
	.st3{font-family:'ArialMT';}
	.st4{font-size:12px;}
	.st5{font-family:'Helvetica';}
	.st6{font-size:8.3024px;}
	.st7{fill:#75AADB;fill-opacity:0.6;stroke:#75AADB;}
	.st8{fill:none;stroke:#CCCCCC;}
	.st9{fill:none;stroke:#0060A8;stroke-dasharray:6,2;}
	.st10{fill:#0060A8;}
</style>
<g>
	<defs>
		<rect id="SVGID_1_" width="805" height="600"/>
	</defs>
	<clipPath id="SVGID_00000111188535617512769940000001658625907851364516_">
		<use xlink:href="#SVGID_1_"  style="overflow:visible;"/>
	</clipPath>
	<g transform="translate(0,0)" style="clip-path:url(#SVGID_00000111188535617512769940000001658625907851364516_);">
		<g transform="translate(379, 303)">
			<g id="axes">
				<ellipse id="_x37_0" class="st1" cx="23.5" cy="13.2" rx="200.9" ry="194.3"/>
				<ellipse id="_x36_0" class="st1" cx="23.5" cy="13.2" rx="173.5" ry="167.7"/>
				<ellipse id="_x35_0" class="st1" cx="23.5" cy="13.2" rx="146" ry="141.1"/>
				<ellipse id="_x34_0" class="st1" cx="23.5" cy="13.2" rx="118.5" ry="114.6"/>
				<ellipse id="_x33_0" class="st1" cx="23.5" cy="13.2" rx="90.2" ry="87.2"/>
				<ellipse id="_x32_0" class="st1" cx="23.5" cy="13.2" rx="62.7" ry="60.6"/>
				<ellipse id="_x31_0" class="st1" cx="23.5" cy="13.2" rx="35.2" ry="34"/>
				<ellipse id="_x30_" class="st1" cx="23.5" cy="13.2" rx="7.7" ry="7.5"/>
				<g>
					<line class="st2" x1="23.5" y1="5.7" x2="23.5" y2="-207.7"/>
					<text transform="matrix(1.0343 0 0 1 -9.472656e-02 -213.4507)" class="st3 st4">Asbestos</text>
				</g>
				<g>
					<line class="st2" x1="31.3" y1="13.2" x2="251.9" y2="13.2"/>
					<text transform="matrix(1.0343 0 0 1 256.3643 15.8252)" class="st3 st4">Mold</text>
				</g>
				<g>
					<line class="st2" x1="23.5" y1="20.6" x2="23.5" y2="234"/>
					<text transform="matrix(1.0343 0 0 1 13.0604 246.7656)" class="st3 st4">Lead</text>
				</g>
				<g>
					<line class="st2" x1="15.8" y1="13.2" x2="-204.9" y2="13.2"/>
					<text transform="matrix(1.0343 0 0 1 -289.6289 15.5927)" class="st3 st4">All three toxins</text>
				</g>
				<g id="y_axis" transform="translate(0, -275)">
					<path class="st2" d="M18.4,67.3h5.2v213.4h-5.2"/>
					<g transform="translate(0,16)">
						<line class="st2" x1="23.5" y1="57.1" x2="18.4" y2="57.1"/>
						<text transform="matrix(1.0343 0 0 1 6.2476 59.7964)" class="st5 st6">70</text>
					</g>
					<g transform="translate(0,52)">
						<line class="st2" x1="23.5" y1="51" x2="18.4" y2="51"/>
						<text transform="matrix(1.0343 0 0 1 6.2476 53.6846)" class="st5 st6">60</text>
					</g>
					<g transform="translate(0,88)">
						<line class="st2" x1="23.5" y1="44.9" x2="18.4" y2="44.9"/>
						<text transform="matrix(1.0343 0 0 1 6.2476 47.5732)" class="st5 st6">50</text>
					</g>
					<g transform="translate(0,123)">
						<line class="st2" x1="23.5" y1="39" x2="18.4" y2="39"/>
						<text transform="matrix(1.0343 0 0 1 6.2476 41.6313)" class="st5 st6">40</text>
					</g>
					<g transform="translate(0,159)">
						<line class="st2" x1="23.5" y1="32.9" x2="18.4" y2="32.9"/>
						<text transform="matrix(1.0343 0 0 1 6.2476 35.52)" class="st5 st6">30</text>
					</g>
					<g transform="translate(0,195)">
						<line class="st2" x1="23.5" y1="26.8" x2="18.4" y2="26.8"/>
						<text transform="matrix(1.0343 0 0 1 6.2476 29.4082)" class="st5 st6">20</text>
					</g>
					<g transform="translate(0,230)">
						<line class="st2" x1="23.5" y1="20.8" x2="18.4" y2="20.8"/>
						<text transform="matrix(1.0343 0 0 1 6.2476 23.4658)" class="st5 st6">10</text>
					</g>
					<g transform="translate(0,266)">
						<line class="st2" x1="23.5" y1="14.7" x2="18.4" y2="14.7"/>
						<text transform="matrix(1.0343 0 0 1 11.0229 17.3545)" class="st5 st6">0</text>
					</g>
				</g>
			</g>
			<g id="radars">
				<g id="_x30__00000046325287043148293440000001232696940587162279_">
					<path class="st7" d="M23.5-133L229.6,13.2L23.5,148.5L-89,13.2L23.5-133z"/>
				</g>
			</g>
		</g>
	</g>
</g>
<g id="grid">
	<rect class="st8" width="805" height="600"/>
</g>
<text transform="matrix(0.8768 0 0 1 119.6072 591.6182)" class="st3 st4">Chart: Zhaozhou Dai | Columbia Journalism Investigations | The Center for Public Integrity •  Data Source:</text>
<g>
	<g>
		<path class="st9" d="M553.8,111.2c-10,10.7-29.8,28.8-60.7,42.4c-43.6,19.2-80.1,16.8-90.2,15.8"/>
		<g>
			<path class="st10" d="M552.6,112.5l1.2,4l0.1,0l2.2-5.9c1-1.8,2.1-3.6,3.1-5.5c-1.7,1.2-3.4,2.4-5.1,3.7l-5.7,2.8l0,0.1
				L552.6,112.5z"/>
		</g>
	</g>
</g>
<g>
	<g>
		<path class="st9" d="M694.9,361.4c-12.1,9-33.5,21.8-53.2,15.8c-27.3-8.4-33.1-47.3-34.4-58.5"/>
		<g>
			<path class="st10" d="M693.4,362.4l0.5,4.2l0.1,0l3.2-5.4c1.3-1.6,2.7-3.2,4-4.8c-1.9,0.9-3.8,1.8-5.7,2.7l-6.1,1.8l-0.1,0.1
				L693.4,362.4z"/>
		</g>
	</g>
</g>
<g>
	<g>
		<path class="st9" d="M226.8,502.9c10.7-14,33-38.2,69.8-51.4c49.9-17.8,93-3.2,104.9,1.2"/>
		<g>
			<path class="st10" d="M227.9,501.5l-1.6-3.9l-0.1,0.1l-1.6,6.1c-0.9,1.9-1.7,3.8-2.6,5.7c1.6-1.4,3.2-2.8,4.7-4.1l5.4-3.3l0-0.1
				L227.9,501.5z"/>
		</g>
	</g>
</g>
<g>
	<g>
		<path class="st9" d="M162.5,117C173.2,295,289.6,314.7,289.6,314.7"/>
		<g>
			<path class="st10" d="M162.7,118.8l3.7,2l0.1-0.1l-2.7-5.7c-0.6-2-1.1-4-1.7-6c-0.3,2.1-0.6,4.1-1,6.2l-2,6l0.1,0.1L162.7,118.8z
				"/>
		</g>
	</g>
</g>
<text transform="matrix(1.0343 0 0 1 155.034 104.3725)" class="st10 st3 st4">38</text>
<text transform="matrix(0.8216 0.6283 -0.6075 0.7943 556.5922 97.9934)" class="st10 st3 st4">52</text>
<text transform="matrix(0.6041 0.8395 -0.8117 0.5841 700.1979 350.3721)" class="st10 st3 st4">72</text>
<text transform="matrix(1.0341 -2.127380e-02 2.056851e-02 0.9998 207.1026 520.453)" class="st10 st3 st4">48</text>
</svg>
